<svg xmlns="http://www.w3.org/2000/svg" viewBox="0 0 102 103"><g id="Layer_2" data-name="Layer 2"><g id="Layer_1-2" data-name="Layer 1"><path d="M102,16V88H95.2c-.17,3-.3,5.36-.44,7.83l-7.76.4V103H15V96.2l-7.83-.44L6.77,88H0V16H6.8l.44-7.82L15,7.76V0H87V7.8l7.83.44c.14,2.78.27,5.16.4,7.76ZM16.21,9.22l-.48,7.84H8.27V86.79l7.52.45.47,7.4H86.15V87.22l7.53-.44V17.19l-7.84-.45V9.22Z"/><path d="M78.67,39.74H63.09V32.33H39.29V47.74H70.7c.19,2.91.34,5.31.51,8l7.56.4V71.74l-7.53.46c-.15,2.54-.3,5-.46,7.56H31.25l-.44-7.48-7.57-.53V64.36h15.5l.51,7.39H62.63V56.09H31.15V48.22H23.31V32.16h7.43l.45-7.84H70.82c.1,2.35.21,4.63.33,7.43h7.52Z"/></g></g></svg>